<?xml version="1.0" encoding="utf-8"?>
<!-- Generator: Adobe Illustrator 19.0.0, SVG Export Plug-In . SVG Version: 6.00 Build 0)  -->
<!DOCTYPE svg PUBLIC "-//W3C//DTD SVG 1.1//EN" "http://www.w3.org/Graphics/SVG/1.1/DTD/svg11.dtd">
<svg version="1.1" id="Layer_1" xmlns="http://www.w3.org/2000/svg" xmlns:xlink="http://www.w3.org/1999/xlink" x="0px" y="0px"
	 viewBox="0 0 175 100" style="enable-background:new 0 0 175 100;" xml:space="preserve">
<style type="text/css">
	.st0{fill:url(#XMLID_64_);}
	.st1{fill:url(#XMLID_65_);}
	.st2{fill:url(#XMLID_66_);}
	.st3{fill:url(#XMLID_67_);}
	.st4{fill:url(#XMLID_68_);}
</style>
<g id="XMLID_2_">
	<linearGradient id="XMLID_64_" gradientUnits="userSpaceOnUse" x1="87.5" y1="80.1342" x2="87.5" y2="19.8658">
		<stop  offset="0" style="stop-color:#8B5E3C"/>
		<stop  offset="1" style="stop-color:#C49A6C"/>
	</linearGradient>
	<path id="XMLID_152_" class="st0" d="M89.9,20.8c1.9,1.2,3.4,2.9,4.5,4.8c0.7,1.3,1.4,2.5,2.2,3.7c1.8,2.9,4.5,5,7.7,6.1
		c1.4,0.5,3,0.6,4.4,0.7c9,0.2,17.9,1.1,26.6,3c6,1.3,11.8,3.1,17.7,4.7c4.6,1.2,9.3,2.4,14,3.5c1.4,0.3,2.5,1,3,2.3
		c0,0.3,0,0.7,0,1c-0.4,0.4-0.8,0.9-1.2,1.3c-0.2,0.1-0.5,0.2-0.7,0.1c-1.7-0.6-3.3-0.2-4.9,0.3c-0.5,0.2-0.9,0.7-1.5,1
		c-1.9,1.1-3.9,1.9-6.1,2.2c0.5-0.3,0.9-0.7,1.4-1c0.6-0.4,1.3-0.6,2-0.9c0-0.1,0-0.2,0-0.4c-0.4-0.1-0.7-0.3-1.1-0.2
		c-2.8,0.1-5.5,0.6-7.3,3c-0.7,0.9-1.4,1.7-2.1,2.5c-0.4,0.5-0.4,1,0,1.5c0.4,0.6,0.9,0.4,1.4,0.1c0.2-0.1,0.4-0.2,0.5-0.3
		c1.6-0.8,3-1.6,5-1.4c2.8,0.3,5.8-0.1,8.5-1.5c0.4-0.2,0.8-0.7,1.2-1c-0.1-0.1-0.1-0.1-0.2-0.2c-1.7,0.6-3.4,1.5-5.1,1.8
		c-1.8,0.3-3.7,0-5.5,0c0-0.1-0.1-0.2-0.1-0.4c0.5-0.5,1.1-1.1,1.6-1.6c-0.2,0.9,0.5,1,1.1,1.1c2.5,0.1,5,0,7.3-1.1
		c0.8-0.4,1.6-0.8,2.4-1.2c0.1-0.1,0.3-0.2,0.3-0.3c0-0.9,0.7-0.8,1.3-0.8c0.4,0,0.9,0.3,0.9,0.6c0,0.5,0,1.3-0.3,1.6
		c-1.4,1.2-2.9,2.5-4.5,3.4c-3.8,2.2-7.8,3.8-12.2,4.5c-3.3,0.5-6.6,0.7-9.9,1.1c-1.9,0.2-3.8,0.5-5.6-0.1c-0.2-0.1-0.5,0-0.7,0.1
		c-1.6,0.4-3.1,0.8-4.7,1.3c-0.3,0.1-0.6,0.3-0.9,0.5c-0.6,0.5-1.2,1-1.7,1.6c-3.2,3.5-7.3,5.8-11.5,7.9c-1.4,0.7-2.9,0.9-4.5,0.6
		c-1.4-0.3-1.7-0.7-1.1-2.1c1.1-2.5,1.2-5.1,0.5-8c-6.9,1.1-14,1.3-21,1c-0.4,2.3-1.2,4.2-2.6,5.8c-2.8,3.1-5.9,5.8-10,7
		c-0.1,0-0.2,0.1-0.2,0.2c-0.1,0-0.3,0-0.4,0c-0.4-0.7-0.8-1.5-1-2.2c-0.2-0.6-0.2-1.3-0.1-1.9c0.4-1.1,0.3-2.2-0.1-3.2
		c-0.1-0.2-0.2-0.5-0.3-0.8c-0.5-1.7,0-3.2,1.7-3.8c1.4-0.5,3-0.6,4.5-0.9c0.8-0.2,1.7-0.2,2.5-0.4c0-0.1,0-0.2,0-0.3
		c-0.7-0.1-1.5-0.3-2.2-0.4c-3.7-0.2-7.4-0.2-11.1-0.4c-1.3-0.1-2.7-0.4-4-0.9c-1.8-0.7-3.3-0.5-4.6,0.8c-1,1-2,2.1-3,3.1
		c-2.1,2.1-4.1,4.3-6.2,6.3c-1,0.9-2.3,1.6-3.4,2.3c-1.1-1.1-2.1-2.1-3-3.1c-0.2-0.2-0.2-0.6-0.3-0.9c-0.1-0.3-0.3-0.5-0.3-0.8
		c-0.2-1.2-0.9-2.1-1.4-3.2c-0.3-0.8-1-1.4-1.6-2c-0.9-0.8-1.2-1.7-1.2-2.9c0-0.9-0.1-1.9-0.2-2.9c2.2-1.2,5-0.7,7.8-1.4
		c-0.4-0.2-0.6-0.4-0.8-0.4c-3.7-0.5-7.4-0.9-11.1-1.3c-2.3-0.2-4.5,0.3-6.4,1.6c-2.7,1.9-5.3,3.8-7.8,5.9c-2.5,2.1-5,4.3-8.1,5.3
		c-2.1,0.7-4.4,1-6.6,1.4c-1.2,0.2-1.8-0.4-1.8-1.6c0-1.3,0.1-2.6,0.3-3.9c0.5-2.1,0.8-4.1,0.4-6.2c-0.4-2.3-0.1-4.6,0.4-6.9
		c0.5-2.1,0.3-4-0.5-5.9c-0.6-1.3-1.2-2.5-1.5-3.8c-0.3-1.2-0.5-2.6-0.2-3.7c0.8-3.3,0.1-6.2-1.4-9c0-0.4,0-0.8,0-1.2
		C6.4,29.3,8,29,9.7,30.1c3.5,2.2,6.8,4.7,10.2,7c3.7,2.5,7.4,5,11.2,7.5c2.9,1.9,6.1,1.2,9.2,0.4c0.1,0,0.2-0.2,0.3-0.2
		c-1-3,0.5-4.9,3.7-4.6c1.6,0.2,3.2,0.8,4.7,0.9c2,0.1,4-0.2,6-0.4c5.1-0.6,10.2-1.2,15.4-1.8c2.3-0.3,4.6-0.7,6.9-1.1
		c0-0.1,0-0.3,0-0.4c-0.5-0.2-1.1-0.4-1.6-0.6c-0.8-0.2-1.7-0.4-2.5-0.6c-1.4-0.4-1.5-0.5-1.4-1.8c0.8-0.7,1.5-1.3,2.3-2
		c0-1,1-1.4,1.8-2c1-0.6,2.1-1.3,3.2-1.9c0.7-0.4,1.3-1.1,1.9-1.7c0.8-0.8,2.1-1.2,3.2-1.5c1.5-0.4,2.4-1.1,2.3-2.7
		c0-1.2,0.1-2.2,1.2-2.9c0.3,0,0.6,0,0.8,0C89,20.2,89.4,20.5,89.9,20.8z M121.3,59.6c-1.4-0.6-2.9-1-4.4-1.4
		c-0.2-0.1-0.7,0.2-0.8,0.5c-0.2,0.3-0.3,0.8-0.2,1.2c0.3,1.7-0.6,2.6-1.9,3.1c-1.2,0.5-1.5,1.3-1.5,2.4c0,0.6,0,1.2,0.1,1.7
		c0.5,2.3,0.2,4.4-0.6,6.6c-0.6,1.4-0.3,1.7,1.1,2c1.5,0.3,2.9,0.1,4.1-0.7c4.2-2.5,8.5-4.9,11.7-8.8c0.7-0.8,1.8-1.3,2.7-2
		c0.4-0.3,0.9-0.8,1-1.2c0-0.4-0.4-1.1-0.8-1.3c-1.5-0.7-3.1-1.5-4.6-1.1C125,60.9,123.2,60.3,121.3,59.6z M132.4,46.2
		c-0.6,0.3-0.9,1.2-1.2,1.8c-0.4,0.9-0.7,1.9-1.1,2.7c-1.4,2.6-0.8,6.1,1.3,8.1c0.4,0.4,0.7,0.8,1,1.2c1.1,2.2,3.2,2.7,5.3,2.9
		c1.5,0.1,3.1,0,4.9,0c-0.4-0.3-0.5-0.6-0.7-0.6c-0.8-0.2-1.5-0.5-2.3-0.4c-2.5,0.1-4.6-0.9-6.4-2.2c-1.9-1.4-3.8-4.4-2.6-7.4
		c0.7-1.5,1.4-3,1.5-4.8c0-0.3,0.5-0.7,0.8-0.9c1.1-0.6,2.2-1.1,3.3-1.7c0-0.1-0.1-0.2-0.1-0.3C134.9,45.2,133.6,45.6,132.4,46.2z
		 M152.2,51.5c0-1.2-0.9-2.1-2.1-2.1c-1.2,0-2.2,0.9-2.2,2.1c0,1.2,0.9,2.1,2.2,2.1C151.2,53.5,152.2,52.6,152.2,51.5z M85.1,71.3
		c0.8-0.9,1.4-2,2-3.1c0.1-0.2,0-0.6,0-0.9c-0.3,0.1-0.7,0.1-0.9,0.2c-0.8,1.1-1.6,2.2-2.3,3.4c-0.9,1.3-1.9,2.5-3.4,3.2
		C82.4,73.8,83.9,72.7,85.1,71.3z M88.8,67.1c-0.3,0.5-0.6,1-0.9,1.6c-0.7,1.3-1.4,2.5-2.1,3.8c-0.9,1.6-2.2,3-4,3.8
		C84.8,75.7,89.3,70,88.8,67.1z M90.2,24.2c2.5,3,3.5,7,6.5,9.7C94.3,30.8,93.3,26.8,90.2,24.2z M23.6,58.2
		c-2.2,1.5-4.2,3.2-6.5,4.5c-1.5,0.9-3.2,1.2-4.9,1.8c5.6-0.5,9.3-4.2,13.4-7.3c-0.1-0.1-0.1-0.2-0.2-0.3
		C24.8,57.3,24.2,57.7,23.6,58.2z M60,65.6c-1.5,1.9-3.3,3.5-5.4,4.7c-1,0.6-2.1,1-3.1,1.6c4.5-1,7.3-4.3,10.1-7.5
		c-0.1-0.1-0.2-0.2-0.2-0.3C60.9,64.6,60.4,65,60,65.6z M58.2,63.2c-3,2.2-5.8,4.8-9.6,5.6C52.6,68.4,55.4,65.8,58.2,63.2z
		 M84.2,68.4c-0.4-0.6-0.8-0.6-1.3-0.1c-0.5,0.4-0.8,1-1.4,1.2c-1,0.5-2.1,0.9-3.1,1.3C80.7,71,82.3,70.3,84.2,68.4z M87.6,26
		c1.8,2.9,3.6,5.7,5.3,8.5c0.1-0.1,0.2-0.2,0.4-0.3C91.1,31.7,90.5,28.1,87.6,26z M82.1,30.5c2.1,1.7,3.4,4.3,5.8,5.6
		C86,34.1,84.8,31.6,82.1,30.5z M15,58.9c2.5-1.1,5-2.3,7.6-3.5c-3.7,0.5-6.5,3.2-10.2,3.7c0,0.1,0,0.2,0.1,0.4
		C13.3,59.3,14.2,59.2,15,58.9z M53.7,62.5c0-0.1,0-0.2-0.1-0.3c-0.3,0.1-0.6,0.1-0.8,0.2c-1,0.5-1.9,1.2-3,1.6
		c-1.5,0.6-3.1,1.1-4.7,1.6C48.4,65.7,51,64,53.7,62.5z M14.7,52.3c2.6-0.3,5.1-0.4,7.7,0c-0.6-0.1-1.3-0.4-1.9-0.4
		c-1.6-0.1-3.1-0.1-4.7,0c-1.1,0-2.2,0.1-3.3,0.2c0,0,0,0.1,0,0.1C13.2,52.2,13.9,52.4,14.7,52.3z M10.8,40.5c0,0.1-0.1,0.2-0.1,0.4
		c2,0.5,4.1,1.1,6.1,1.6c0-0.1,0.1-0.2,0.1-0.3C14.8,41.7,12.8,41.1,10.8,40.5z M91,35.4c0.1-0.1,0.1-0.1,0.2-0.2
		c-1.2-1.5-2.4-3-3.6-4.4c-0.1,0.1-0.1,0.1-0.2,0.2C88.6,32.4,89.8,33.9,91,35.4z M12.7,46.6c0,0.1,0,0.1,0,0.2
		c1.9,0.5,3.9,0.9,5.8,1.4c0-0.1,0-0.1,0.1-0.2C16.6,47.5,14.6,47.1,12.7,46.6z M79.9,32.7c-0.1,0.1-0.1,0.1-0.2,0.2
		c1.1,1.1,2.2,2.1,3.3,3.2c0.1-0.1,0.1-0.1,0.2-0.2C82.2,34.8,81.1,33.7,79.9,32.7z"/>
	<linearGradient id="XMLID_65_" gradientUnits="userSpaceOnUse" x1="123.1187" y1="73.3073" x2="123.1187" y2="63.0228">
		<stop  offset="0" style="stop-color:#8B5E3C"/>
		<stop  offset="1" style="stop-color:#C49A6C"/>
	</linearGradient>
	<path id="XMLID_121_" class="st1" d="M115.1,73.3c6.4-1.7,11.8-4.7,16-10.3c-0.6,0.1-1.1,0-1.4,0.3c-0.6,0.4-1.1,1-1.5,1.5
		c-3.4,4-7.7,6.7-12.7,8.1c-0.1,0-0.2,0.1-0.3,0.1C115.1,73,115.1,73.1,115.1,73.3z"/>
	<linearGradient id="XMLID_66_" gradientUnits="userSpaceOnUse" x1="121.7821" y1="69.808" x2="121.7821" y2="62.2868">
		<stop  offset="0" style="stop-color:#8B5E3C"/>
		<stop  offset="1" style="stop-color:#C49A6C"/>
	</linearGradient>
	<path id="XMLID_120_" class="st2" d="M128.5,63c-0.5-0.3-0.8-0.5-1.1-0.7c-4,2.9-7.6,6.3-12.5,7.5C120.4,69.2,124.4,66.1,128.5,63z
		"/>
	<linearGradient id="XMLID_67_" gradientUnits="userSpaceOnUse" x1="121.0316" y1="64.1654" x2="121.0316" y2="61.7293">
		<stop  offset="0" style="stop-color:#8B5E3C"/>
		<stop  offset="1" style="stop-color:#C49A6C"/>
	</linearGradient>
	<path id="XMLID_119_" class="st3" d="M125.1,61.7c-0.3,0-0.6,0-0.8,0.1c-2.3,1.3-4.8,1.9-7.4,2.3c3,0.1,5.7-0.5,8.3-2.1
		C125.1,62,125.1,61.8,125.1,61.7z"/>
	<linearGradient id="XMLID_68_" gradientUnits="userSpaceOnUse" x1="150.1708" y1="52.6032" x2="150.1708" y2="50.1836">
		<stop  offset="0" style="stop-color:#8B5E3C"/>
		<stop  offset="1" style="stop-color:#C49A6C"/>
	</linearGradient>
	<path id="XMLID_118_" class="st4" d="M150,50.2c-0.7,0.2-1.2,0.6-1.1,1.4c0.1,0.7,0.6,1.1,1.3,1c0.7-0.1,1.2-0.5,1.2-1.3
		C151.3,50.5,150.8,50.2,150,50.2z"/>
</g>
</svg>
