<?xml version="1.0" encoding="utf-8"?>
<!-- Generator: Adobe Illustrator 19.0.0, SVG Export Plug-In . SVG Version: 6.00 Build 0)  -->
<!DOCTYPE svg PUBLIC "-//W3C//DTD SVG 1.1//EN" "http://www.w3.org/Graphics/SVG/1.1/DTD/svg11.dtd">
<svg version="1.1" id="Layer_1" xmlns="http://www.w3.org/2000/svg" xmlns:xlink="http://www.w3.org/1999/xlink" x="0px" y="0px"
	 viewBox="0 0 300 300" style="enable-background:new 0 0 300 300;" xml:space="preserve">
<style type="text/css">
	.st0{fill:#FF6D2C;}
	.st1{fill:#6A6A6A;}
	.st2{fill:#A3642B;}
	.st3{fill:none;stroke:#FF6D2C;stroke-width:10;stroke-miterlimit:10;}
</style>
<g>
	<path class="st0" d="M123.4,284.9c-3.9-0.5-7.7-0.9-11.6-1.4c-10.6-1.2-20.9-3.6-30.7-8c-11.9-5.4-21.3-13.6-27-25.5
		c-3.3-6.9-5.2-14.2-5.3-21.8c-0.3-13.6-0.3-27.2-0.3-40.8c0-25-0.2-49.9,0.3-74.9c0.3-14.9,5.9-28,17.4-38.2
		c1.4-1.2,2.9-2.4,4.5-3.4c1.4-0.8,1.7-1.9,1.7-3.4c-0.1-5.1,0-10.3,0-15.4c0-0.8,0.1-1.6,0.1-2.5c50.6,0,101,0,151.6,0
		c0,0.8,0.1,1.6,0.1,2.4c0,5.1,0.2,10.3-0.1,15.4c-0.1,2.5,1,3.7,2.8,5.1c3.4,2.7,6.9,5.6,9.8,8.8c7,7.6,10.6,17,12,27.1
		c0.5,3.9,0.7,7.9,0.7,11.9c0.1,33.4,0,66.7,0.1,100.1c0,7.7-0.6,15.4-2.9,22.7c-3.6,11.5-10.5,20.7-20.6,27.3
		c-12.1,8-25.7,11.4-39.8,13.1c-3.9,0.5-7.7,0.9-11.6,1.4C157.5,284.9,140.5,284.9,123.4,284.9z M84.3,61.5c0,3.7-0.2,7.2,0.1,10.7
		c0.2,3.1-0.3,5.5-3.6,6.5c-0.7,0.2-1.2,0.8-1.8,1.2c-6.1,3.7-10.6,8.9-13.8,15.2c-3.8,7.6-4.7,15.7-4.8,24c0,34.2-0.1,68.3,0,102.5
		c0,4.3,0.3,8.7,1.2,12.9c3.3,15.6,13.1,25.6,27.7,31.4c11.7,4.7,24,6.5,36.5,6.8c15.5,0.3,31,0.3,46.5,0
		c12.6-0.2,25.1-2.1,36.9-6.9c10.4-4.3,18.9-10.9,23.9-21.2c3.6-7.5,4.6-15.5,4.6-23.6c0-33.7,0-67.3,0-101c0-3-0.1-5.9-0.5-8.9
		c-0.7-6.2-2.6-12-5.8-17.3c-4.2-6.8-10.2-11.5-17.1-15.2c-1.3-0.7-1.8-1.6-1.7-3.1c0.1-3.8-0.1-7.5,0.1-11.3
		c0.1-2.2-0.6-2.8-2.8-2.8c-40.9,0.1-81.8,0.1-122.7,0.1C86.2,61.5,85.4,61.5,84.3,61.5z"/>
	<path class="st0" d="M223.3,13.1c4.7,1.9,6.5,5.3,6.2,10.2c-0.2,2.9,0,5.8,0,8.7c-0.1,5.2-3.2,8.3-8.5,8.4c-1.2,0-2.5,0-3.7,0
		c-46,0-92,0-138,0c-1,0-2,0-3,0c-4.3-0.3-7.4-3.2-7.5-7.5c-0.2-4.1-0.2-8.2,0-12.4c0.1-3.9,2.8-6,6-7.4
		C124.2,13.1,173.8,13.1,223.3,13.1z"/>
	<path class="st1" d="M82.9,228.1c0.1,1.1,0.2,3.1,0.6,5.1c2,11.3,10.7,17.2,22,15c8.8-1.7,16.2-6.1,22.8-11.8
		c9.7-8.3,17.1-18.4,22.1-30.2c3.7-8.8,5.8-17.9,3.8-27.5c-2-9.3-9.3-14.6-18.9-13.9c-9.7,0.8-17.5,5.5-24.8,11.5
		c-8.6,7-15.3,15.7-20.4,25.6C85.8,209.7,83.2,218.1,82.9,228.1z M129.4,245c2.2,1.1,5.2,2.9,8.4,4.1c18.1,6.6,36.4,6.7,54.5,0.2
		c6.7-2.4,12.6-6,17.1-11.7c5.2-6.6,5.1-15.3-0.2-21.8c-4.8-5.9-11.1-9.4-18-11.9c-10.3-3.7-21.1-4.9-32-4.1
		c-1.2,0.1-1.8,0.5-2.2,1.6c-1,3-2,6-3.2,9c-3.7,9.1-9.2,17.2-15.7,24.5C135.2,238.2,132.4,241.6,129.4,245z"/>
	<path class="st2" d="M82.9,228.1c0.3-10,3-18.3,7.1-26.2c5.1-9.9,11.8-18.5,20.4-25.6c7.3-5.9,15.1-10.7,24.8-11.5
		c9.6-0.8,16.9,4.5,18.9,13.9c2.1,9.6-0.1,18.7-3.8,27.5c-4.9,11.8-12.4,21.9-22.1,30.2c-6.7,5.7-14,10.1-22.8,11.8
		c-11.3,2.1-20-3.7-22-15C83.1,231.2,83,229.1,82.9,228.1z"/>
	<path class="st2" d="M129.4,245c3-3.5,5.9-6.9,8.8-10.1c6.5-7.3,12-15.4,15.7-24.5c1.2-2.9,2.2-5.9,3.2-9c0.4-1.1,0.9-1.5,2.2-1.6
		c11-0.8,21.7,0.4,32,4.1c6.9,2.5,13.2,6,18,11.9c5.3,6.5,5.4,15.2,0.2,21.8c-4.5,5.7-10.5,9.3-17.1,11.7
		c-18.2,6.6-36.4,6.5-54.5-0.2C134.6,248,131.6,246.1,129.4,245z"/>
	<circle class="st1" cx="113.3" cy="206.9" r="6.1"/>
	<g id="XMLID_2_">
		<path id="XMLID_12_" class="st1" d="M150.8,88.9c1.6,1,2.9,2.4,3.8,4c0.6,1.1,1.2,2.1,1.8,3.1c1.5,2.4,3.8,4.2,6.5,5.1
			c1.2,0.4,2.5,0.5,3.7,0.6c7.5,0.2,15.1,1,22.4,2.5c5,1.1,9.9,2.6,14.9,3.9c3.8,1,7.9,2,11.8,3c1.2,0.2,2.1,0.8,2.5,1.9
			c0,0.2,0,0.6,0,0.8c-0.3,0.3-0.6,0.7-1,1.1c-0.2,0.1-0.4,0.2-0.6,0.1c-1.4-0.5-2.8-0.2-4.1,0.2c-0.4,0.2-0.7,0.6-1.3,0.8
			c-1.6,1-3.3,1.6-5.1,1.8c0.4-0.2,0.7-0.6,1.2-0.8c0.5-0.3,1.1-0.5,1.7-0.7c0-0.1,0-0.2,0-0.3c-0.3-0.1-0.6-0.2-1-0.2
			c-2.3,0.1-4.6,0.5-6.2,2.5c-0.6,0.7-1.2,1.4-1.8,2.1c-0.3,0.4-0.3,0.8,0,1.3c0.3,0.5,0.7,0.3,1.2,0.1c0.2-0.1,0.3-0.2,0.4-0.2
			c1.4-0.6,2.5-1.4,4.2-1.2c2.3,0.2,4.9-0.1,7.1-1.3c0.3-0.2,0.6-0.6,1-0.8c-0.1-0.1-0.1-0.1-0.2-0.2c-1.4,0.5-2.9,1.3-4.2,1.5
			c-1.5,0.2-3.1,0-4.6,0c0-0.1-0.1-0.2-0.1-0.3c0.4-0.4,1-1,1.4-1.4c-0.2,0.7,0.4,0.8,1,1c2.1,0.1,4.2,0,6.2-1c0.6-0.3,1.4-0.6,2-1
			c0.1-0.1,0.2-0.2,0.2-0.2c0-0.7,0.6-0.6,1.1-0.6c0.3,0,0.7,0.2,0.7,0.5c0,0.4,0,1.1-0.2,1.4c-1.2,1-2.4,2.1-3.8,2.9
			c-3.2,1.8-6.6,3.2-10.3,3.8c-2.8,0.4-5.5,0.6-8.3,1c-1.6,0.2-3.2,0.4-4.7-0.1c-0.2-0.1-0.4,0-0.6,0.1c-1.4,0.3-2.6,0.6-3.9,1.1
			c-0.2,0.1-0.5,0.2-0.7,0.4c-0.5,0.4-1,0.8-1.4,1.4c-2.7,3-6.2,4.9-9.7,6.6c-1.2,0.6-2.4,0.7-3.8,0.5c-1.2-0.2-1.4-0.6-1-1.8
			c1-2.1,1-4.2,0.4-6.7c-5.8,1-11.8,1.1-17.6,0.8c-0.3,1.9-1,3.5-2.2,4.9c-2.3,2.6-5,4.9-8.4,5.8c-0.1,0-0.2,0.1-0.2,0.2
			c-0.1,0-0.2,0-0.3,0c-0.3-0.6-0.6-1.3-0.8-1.8c-0.2-0.5-0.2-1.1-0.1-1.6c0.3-1,0.2-1.8-0.1-2.7c-0.1-0.2-0.2-0.4-0.2-0.6
			c-0.4-1.4,0-2.7,1.4-3.2c1.2-0.4,2.5-0.5,3.8-0.7c0.6-0.2,1.4-0.2,2.1-0.3c0-0.1,0-0.2,0-0.2c-0.6-0.1-1.3-0.2-1.8-0.3
			c-3.1-0.2-6.2-0.2-9.3-0.3c-1.1-0.1-2.2-0.3-3.4-0.7c-1.5-0.6-2.8-0.4-3.8,0.6c-0.8,0.8-1.7,1.8-2.5,2.6c-1.8,1.8-3.4,3.6-5.2,5.3
			c-0.8,0.7-1.9,1.4-2.9,1.9c-1-1-1.8-1.8-2.5-2.6c-0.2-0.2-0.2-0.5-0.2-0.7c-0.1-0.2-0.2-0.4-0.2-0.6c-0.2-1-0.7-1.8-1.2-2.7
			c-0.2-0.6-0.8-1.2-1.4-1.7c-0.7-0.6-1-1.4-1-2.4c0-0.7-0.1-1.6-0.2-2.4c1.8-1,4.2-0.6,6.6-1.2c-0.3-0.2-0.5-0.3-0.6-0.3
			c-3.1-0.4-6.2-0.7-9.3-1.1c-1.9-0.2-3.8,0.2-5.4,1.4c-2.2,1.6-4.5,3.2-6.6,5c-2.1,1.8-4.2,3.6-6.8,4.5c-1.8,0.6-3.7,0.8-5.5,1.2
			c-1,0.2-1.5-0.3-1.5-1.4c0-1.1,0.1-2.2,0.2-3.3c0.4-1.8,0.6-3.4,0.3-5.2c-0.3-1.9-0.1-3.8,0.3-5.8c0.4-1.8,0.2-3.4-0.4-5
			c-0.5-1.1-1-2.1-1.3-3.2c-0.2-1-0.4-2.2-0.2-3.1c0.6-2.8,0.1-5.2-1.2-7.5c0-0.3,0-0.6,0-1c1-1.1,2.3-1.4,3.8-0.4
			c3,1.8,5.7,3.9,8.6,5.8c3.1,2.1,6.2,4.2,9.4,6.3c2.4,1.6,5.1,1,7.7,0.3c0.1,0,0.2-0.2,0.2-0.2c-0.8-2.5,0.4-4.1,3.1-3.8
			c1.4,0.2,2.7,0.6,3.9,0.7c1.7,0.1,3.4-0.2,5-0.3c4.2-0.5,8.6-1,13-1.5c1.9-0.2,3.8-0.6,5.8-1c0-0.1,0-0.2,0-0.3
			c-0.4-0.2-1-0.3-1.4-0.5c-0.6-0.2-1.4-0.3-2.1-0.5c-1.2-0.3-1.3-0.4-1.2-1.5c0.6-0.6,1.3-1.1,1.9-1.7c0-0.8,0.8-1.2,1.5-1.7
			c0.8-0.5,1.8-1.1,2.7-1.6c0.6-0.3,1.1-1,1.6-1.4c0.6-0.6,1.8-1,2.7-1.3c1.3-0.3,2-1,1.9-2.2c0-1,0.1-1.8,1-2.4c0.2,0,0.5,0,0.6,0
			C150.1,88.5,150.4,88.7,150.8,88.9z M177.2,121.6c-1.2-0.5-2.4-0.8-3.7-1.2c-0.2-0.1-0.6,0.2-0.6,0.4c-0.2,0.2-0.2,0.6-0.2,1
			c0.2,1.4-0.5,2.2-1.6,2.6c-1,0.4-1.3,1.1-1.3,2c0,0.5,0,1,0.1,1.4c0.4,1.9,0.2,3.7-0.5,5.5c-0.5,1.2-0.2,1.4,1,1.7
			c1.3,0.2,2.4,0.1,3.4-0.6c3.5-2.1,7.1-4.1,9.9-7.4c0.6-0.6,1.5-1.1,2.2-1.7c0.3-0.2,0.7-0.6,0.8-1c0-0.3-0.3-1-0.6-1.1
			c-1.3-0.6-2.6-1.3-3.8-1C180.3,122.7,178.8,122.2,177.2,121.6z M186.6,110.3c-0.5,0.2-0.7,1-1,1.5c-0.3,0.7-0.6,1.6-1,2.2
			c-1.2,2.2-0.6,5.1,1.1,6.8c0.3,0.3,0.6,0.6,0.8,1c1,1.8,2.7,2.2,4.5,2.4c1.3,0.1,2.6,0,4.1,0c-0.3-0.2-0.4-0.5-0.6-0.5
			c-0.6-0.2-1.3-0.4-1.9-0.3c-2.1,0.1-3.8-0.7-5.4-1.8c-1.6-1.2-3.2-3.7-2.2-6.2c0.6-1.3,1.2-2.5,1.3-4c0-0.2,0.4-0.6,0.6-0.7
			c1-0.5,1.8-1,2.8-1.4c0-0.1-0.1-0.2-0.1-0.2C188.7,109.5,187.5,109.8,186.6,110.3z M203.2,114.7c0-1-0.7-1.8-1.8-1.8
			s-1.8,0.7-1.8,1.8s0.7,1.8,1.8,1.8C202.4,116.4,203.2,115.7,203.2,114.7z M146.8,131.4c0.6-0.7,1.2-1.7,1.7-2.6
			c0.1-0.2,0-0.5,0-0.7c-0.2,0.1-0.6,0.1-0.7,0.2c-0.6,1-1.4,1.8-1.9,2.9c-0.7,1.1-1.6,2.1-2.9,2.7
			C144.5,133.5,145.8,132.6,146.8,131.4z M150,127.9c-0.2,0.4-0.5,0.8-0.7,1.4c-0.6,1.1-1.2,2.1-1.8,3.2c-0.7,1.4-1.8,2.5-3.4,3.2
			C146.6,135.1,150.4,130.3,150,127.9z M151.1,91.8c2.1,2.5,3,5.8,5.4,8.2C154.5,97.4,153.7,94,151.1,91.8z M95.2,120.4
			c-1.8,1.3-3.5,2.7-5.4,3.8c-1.3,0.7-2.7,1-4.1,1.5c4.7-0.4,7.9-3.5,11.3-6.2c-0.1-0.1-0.1-0.2-0.2-0.2
			C96.1,119.6,95.6,120,95.2,120.4z M125.8,126.6c-1.3,1.6-2.8,3-4.6,3.9c-0.8,0.5-1.8,0.8-2.6,1.4c3.8-0.8,6.2-3.6,8.5-6.3
			c-0.1-0.1-0.2-0.2-0.2-0.2C126.5,125.8,126.1,126.1,125.8,126.6z M124.2,124.6c-2.5,1.8-4.9,4-8.1,4.7
			C119.5,128.9,121.8,126.8,124.2,124.6z M146,128.9c-0.3-0.5-0.6-0.5-1.1-0.1c-0.4,0.3-0.6,0.8-1.2,1c-0.8,0.4-1.8,0.7-2.6,1.1
			C143.2,131.2,144.4,130.5,146,128.9z M148.9,93.4c1.5,2.4,3,4.8,4.5,7.1c0.1-0.1,0.2-0.2,0.3-0.2
			C151.9,98.2,151.3,95.1,148.9,93.4z M144.3,97.1c1.8,1.4,2.9,3.6,4.9,4.7C147.6,100.2,146.6,98.1,144.3,97.1z M88,121
			c2.1-1,4.2-1.9,6.4-3c-3.1,0.4-5.4,2.7-8.6,3.1c0,0.1,0,0.2,0.1,0.3C86.5,121.3,87.2,121.2,88,121z M120.4,124
			c0-0.1,0-0.2-0.1-0.2c-0.2,0.1-0.5,0.1-0.6,0.2c-0.8,0.4-1.6,1-2.5,1.4c-1.3,0.5-2.6,1-3.9,1.4C116,126.7,118.2,125.2,120.4,124z
			 M87.6,115.5c2.2-0.2,4.2-0.3,6.5,0c-0.5-0.1-1.1-0.3-1.6-0.3c-1.4-0.1-2.6-0.1-3.9,0c-1,0-1.8,0.1-2.8,0.2v0.1
			C86.4,115.4,87,115.5,87.6,115.5z M84.4,105.5c0,0.1-0.1,0.2-0.1,0.3c1.7,0.4,3.4,1,5.1,1.4c0-0.1,0.1-0.2,0.1-0.2
			C87.8,106.5,86.1,106,84.4,105.5z M151.8,101.2c0.1-0.1,0.1-0.1,0.2-0.2c-1-1.3-2-2.5-3-3.7c-0.1,0.1-0.1,0.1-0.2,0.2
			C149.7,98.7,150.8,100,151.8,101.2z M86,110.7c0,0.1,0,0.1,0,0.2c1.6,0.4,3.3,0.7,4.9,1.2c0-0.1,0-0.1,0.1-0.2
			C89.2,111.4,87.6,111.1,86,110.7z M142.4,99c-0.1,0.1-0.1,0.1-0.2,0.2c1,1,1.8,1.8,2.8,2.7c0.1-0.1,0.1-0.1,0.2-0.2
			C144.4,100.7,143.5,99.8,142.4,99z"/>
		<path id="XMLID_11_" class="st1" d="M172,133.1c5.4-1.4,9.9-3.9,13.5-8.7c-0.5,0.1-1,0-1.2,0.2c-0.5,0.3-1,0.8-1.3,1.3
			c-2.9,3.4-6.5,5.6-10.7,6.8c-0.1,0-0.2,0.1-0.2,0.1C172,132.9,172,132.9,172,133.1z"/>
		<path id="XMLID_10_" class="st1" d="M183.3,124.4c-0.4-0.2-0.6-0.4-1-0.6c-3.4,2.4-6.4,5.3-10.5,6.3
			C176.5,129.6,179.8,127,183.3,124.4z"/>
		<path id="XMLID_9_" class="st1" d="M180.4,123.3c-0.2,0-0.5,0-0.6,0.1c-1.9,1.1-4,1.6-6.2,1.9c2.5,0.1,4.8-0.4,7-1.8
			C180.4,123.6,180.4,123.4,180.4,123.3z"/>
		<path id="XMLID_8_" class="st1" d="M201.3,113.7c-0.6,0.2-1,0.5-1,1.2c0.1,0.6,0.5,1,1.1,0.8c0.6-0.2,1-0.4,1-1.1
			C202.4,113.9,202,113.7,201.3,113.7z"/>
	</g>
	<path class="st1" d="M177.6,206.9c-0.4,0.2-0.9,0.4-1.3,0.6c-3.9,1.1-5.4,3.9-4.2,7.5c1.1,3.3,4,4.4,7.1,2.8c3.4-1.8,4.1-4.9,2-8.3
		c-0.3-0.4-0.4-0.9-0.7-1.3C179.5,207.7,178.6,207.3,177.6,206.9z"/>
	<path class="st1" d="M135.1,181.9c-0.4,0.2-0.9,0.4-1.3,0.6c-3.9,1.1-5.4,3.9-4.2,7.5c1.1,3.3,4,4.4,7.1,2.8c3.4-1.8,4.1-4.9,2-8.3
		c-0.3-0.4-0.4-0.9-0.7-1.3C137,182.6,136.1,182.2,135.1,181.9z"/>
	<path class="st1" d="M159.8,226.9c-0.4,0.2-0.9,0.4-1.3,0.6c-3.9,1.1-5.4,3.9-4.2,7.5c1.1,3.3,4,4.4,7.1,2.8c3.4-1.8,4.1-4.9,2-8.3
		c-0.3-0.4-0.4-0.9-0.7-1.3C161.7,227.7,160.8,227.3,159.8,226.9z"/>
	<path class="st1" d="M103.3,221.1c-0.4,0.2-0.9,0.4-1.3,0.6c-3.9,1.1-5.4,3.9-4.2,7.5c1.1,3.3,4,4.4,7.1,2.8c3.4-1.8,4.1-4.9,2-8.3
		c-0.3-0.4-0.4-0.9-0.7-1.3C105.2,221.9,104.2,221.5,103.3,221.1z"/>
	<path class="st1" d="M191.9,227.4c-0.3,0-0.6-0.1-0.9-0.2c-2.3-0.8-4.1,0-4.8,2.3c-0.7,2,0.5,3.7,2.6,3.9c2.3,0.3,3.8-1,4-3.5
		c0-0.3,0.1-0.6,0.2-0.9C192.6,228.4,192.3,227.9,191.9,227.4z"/>
	<path class="st1" d="M133.4,207.2c-0.3,0-0.6-0.1-0.9-0.2c-2.3-0.8-4.1,0-4.8,2.3c-0.7,2,0.5,3.7,2.6,3.9c2.3,0.3,3.8-1,4-3.5
		c0-0.3,0.1-0.6,0.2-0.9C134.1,208.2,133.8,207.7,133.4,207.2z"/>
</g>
<line class="st3" x1="189.5" y1="145" x2="189.5" y2="184.5"/>
<line class="st3" x1="209.2" y1="164.7" x2="169.8" y2="164.7"/>
</svg>
